<mxfile host="app.diagrams.net" modified="2024-04-16T08:32:16.249Z" agent="Mozilla/5.0 (X11; Linux x86_64; rv:109.0) Gecko/20100101 Firefox/115.0" etag="Mjrr0mlsfmjN5o13FCMa" version="24.0.7" type="device">
  <diagram id="k4pNC1rw3EwO7Iqltvwy" name="Page-1">
    <mxGraphModel dx="995" dy="571" grid="1" gridSize="10" guides="1" tooltips="1" connect="1" arrows="1" fold="1" page="1" pageScale="1" pageWidth="827" pageHeight="1169" math="0" shadow="0">
      <root>
        <mxCell id="0" />
        <mxCell id="1" parent="0" />
        <mxCell id="ECoGbR0762pp9iFnCjb--15" value="" style="rounded=0;whiteSpace=wrap;html=1;fontSize=18;fillColor=#dae8fc;strokeColor=#6c8ebf;" parent="1" vertex="1">
          <mxGeometry x="310" y="362" width="270" height="308" as="geometry" />
        </mxCell>
        <mxCell id="ECoGbR0762pp9iFnCjb--5" value="" style="outlineConnect=0;dashed=0;verticalLabelPosition=bottom;verticalAlign=top;align=center;html=1;shape=mxgraph.aws3.internet_3;fillColor=#dae8fc;strokeColor=#6c8ebf;" parent="1" vertex="1">
          <mxGeometry x="414" y="280" width="68.88" height="44" as="geometry" />
        </mxCell>
        <mxCell id="_etOdeRrxOBRMlxFL1JE-13" value="" style="edgeStyle=none;rounded=0;orthogonalLoop=1;jettySize=auto;html=1;endArrow=none;endFill=0;startArrow=none;" parent="1" source="ECoGbR0762pp9iFnCjb--5" target="ECoGbR0762pp9iFnCjb--2" edge="1">
          <mxGeometry relative="1" as="geometry">
            <mxPoint x="450" y="270" as="sourcePoint" />
            <mxPoint x="450" y="370" as="targetPoint" />
          </mxGeometry>
        </mxCell>
        <mxCell id="_etOdeRrxOBRMlxFL1JE-18" value="HOST" style="text;html=1;resizable=0;autosize=1;align=center;verticalAlign=middle;points=[];fillColor=none;strokeColor=none;rounded=0;" parent="1" vertex="1">
          <mxGeometry x="304" y="650" width="50" height="20" as="geometry" />
        </mxCell>
        <mxCell id="_etOdeRrxOBRMlxFL1JE-19" value="Internet" style="text;html=1;resizable=0;autosize=1;align=center;verticalAlign=middle;points=[];fillColor=none;strokeColor=none;rounded=0;" parent="1" vertex="1">
          <mxGeometry x="418.25" y="302" width="60" height="20" as="geometry" />
        </mxCell>
        <mxCell id="-73Oau5m9B-L7gfSsbPc-15" value="" style="edgeStyle=orthogonalEdgeStyle;rounded=0;orthogonalLoop=1;jettySize=auto;html=1;endArrow=none;endFill=0;" parent="1" edge="1">
          <mxGeometry relative="1" as="geometry">
            <mxPoint x="460" y="496" as="targetPoint" />
            <Array as="points">
              <mxPoint x="370" y="496" />
            </Array>
            <mxPoint x="370" y="562" as="sourcePoint" />
          </mxGeometry>
        </mxCell>
        <mxCell id="-73Oau5m9B-L7gfSsbPc-9" value="" style="sketch=0;aspect=fixed;html=1;points=[];align=center;image;fontSize=12;image=img/lib/mscae/Virtual_Machine_2.svg;" parent="1" vertex="1">
          <mxGeometry x="346" y="562" width="50" height="46" as="geometry" />
        </mxCell>
        <mxCell id="-73Oau5m9B-L7gfSsbPc-17" value="" style="edgeStyle=orthogonalEdgeStyle;rounded=0;orthogonalLoop=1;jettySize=auto;html=1;endArrow=none;endFill=0;exitX=0.487;exitY=0.036;exitDx=0;exitDy=0;exitPerimeter=0;" parent="1" source="-73Oau5m9B-L7gfSsbPc-10" edge="1">
          <mxGeometry relative="1" as="geometry">
            <mxPoint x="457" y="496" as="targetPoint" />
            <Array as="points">
              <mxPoint x="524" y="496" />
            </Array>
          </mxGeometry>
        </mxCell>
        <mxCell id="MHocgcyIS5ZqbI75Damo-5" value="" style="edgeStyle=orthogonalEdgeStyle;rounded=0;orthogonalLoop=1;jettySize=auto;html=1;entryX=1.053;entryY=0.529;entryDx=0;entryDy=0;entryPerimeter=0;endSize=6;startArrow=classic;startFill=1;" edge="1" parent="1" source="-73Oau5m9B-L7gfSsbPc-10" target="-73Oau5m9B-L7gfSsbPc-9">
          <mxGeometry relative="1" as="geometry" />
        </mxCell>
        <mxCell id="-73Oau5m9B-L7gfSsbPc-10" value="" style="sketch=0;aspect=fixed;html=1;points=[];align=center;image;fontSize=12;image=img/lib/mscae/Virtual_Machine_2.svg;" parent="1" vertex="1">
          <mxGeometry x="500" y="563" width="50" height="46" as="geometry" />
        </mxCell>
        <mxCell id="ECoGbR0762pp9iFnCjb--3" value="" style="edgeStyle=orthogonalEdgeStyle;rounded=0;orthogonalLoop=1;jettySize=auto;html=1;endArrow=none;endFill=0;" parent="1" edge="1">
          <mxGeometry relative="1" as="geometry">
            <mxPoint x="449.19999999999993" y="440" as="sourcePoint" />
            <mxPoint x="450" y="496" as="targetPoint" />
          </mxGeometry>
        </mxCell>
        <mxCell id="ECoGbR0762pp9iFnCjb--2" value="" style="sketch=0;pointerEvents=1;shadow=0;dashed=0;html=1;strokeColor=#666666;labelPosition=center;verticalLabelPosition=bottom;verticalAlign=top;outlineConnect=0;align=center;shape=mxgraph.office.servers.physical_host;fillColor=#f5f5f5;fontColor=#333333;" parent="1" vertex="1">
          <mxGeometry x="428.25" y="382" width="41.75" height="58" as="geometry" />
        </mxCell>
        <mxCell id="ECoGbR0762pp9iFnCjb--9" value="&lt;div&gt;Contenedor1&lt;/div&gt;&lt;div&gt;tap0: 10.0.2.100&lt;br&gt;&lt;/div&gt;" style="text;html=1;resizable=0;autosize=1;align=center;verticalAlign=middle;points=[];fillColor=none;strokeColor=none;rounded=0;" parent="1" vertex="1">
          <mxGeometry x="314" y="610" width="110" height="40" as="geometry" />
        </mxCell>
        <mxCell id="ECoGbR0762pp9iFnCjb--10" value="&lt;h2 dir=&quot;auto&quot; class=&quot;heading-element&quot; tabindex=&quot;-1&quot;&gt;Red slirp4netns&lt;/h2&gt;" style="text;html=1;resizable=0;autosize=1;align=center;verticalAlign=middle;points=[];fillColor=none;strokeColor=none;rounded=0;" parent="1" vertex="1">
          <mxGeometry x="368.25" y="660" width="160" height="60" as="geometry" />
        </mxCell>
        <mxCell id="ECoGbR0762pp9iFnCjb--13" value="eth0: 192.168.1.2" style="text;html=1;resizable=0;autosize=1;align=center;verticalAlign=middle;points=[];fillColor=none;strokeColor=none;rounded=0;" parent="1" vertex="1">
          <mxGeometry x="438.88" y="355" width="120" height="30" as="geometry" />
        </mxCell>
        <mxCell id="MHocgcyIS5ZqbI75Damo-1" value="&lt;div&gt;Contenedor2&lt;/div&gt;&lt;div&gt;tap0: 10.0.2.100&lt;/div&gt;" style="text;html=1;resizable=0;autosize=1;align=center;verticalAlign=middle;points=[];fillColor=none;strokeColor=none;rounded=0;" vertex="1" parent="1">
          <mxGeometry x="470" y="608" width="110" height="40" as="geometry" />
        </mxCell>
        <mxCell id="MHocgcyIS5ZqbI75Damo-4" value="&lt;div&gt;&lt;br&gt;&lt;/div&gt;&lt;div&gt;10.0.2.2&lt;/div&gt;" style="text;html=1;resizable=0;autosize=1;align=center;verticalAlign=middle;points=[];fillColor=none;strokeColor=none;rounded=0;" vertex="1" parent="1">
          <mxGeometry x="390" y="420" width="70" height="40" as="geometry" />
        </mxCell>
        <mxCell id="MHocgcyIS5ZqbI75Damo-7" value="&lt;div&gt;ComunicaciÃ³n&lt;/div&gt;&lt;div&gt;Usando IP del Host&lt;/div&gt;&lt;div&gt;192.168.1.2&lt;/div&gt;" style="text;strokeColor=none;align=center;fillColor=none;html=1;verticalAlign=middle;whiteSpace=wrap;rounded=0;" vertex="1" parent="1">
          <mxGeometry x="408.25" y="540" width="80" height="30" as="geometry" />
        </mxCell>
        <mxCell id="MHocgcyIS5ZqbI75Damo-11" value="&lt;div&gt;&lt;font color=&quot;#FF3333&quot;&gt;El host &lt;br&gt;&lt;/font&gt;&lt;/div&gt;&lt;div&gt;&lt;font color=&quot;#FF3333&quot;&gt;funciona &lt;br&gt;&lt;/font&gt;&lt;/div&gt;&lt;div&gt;&lt;font color=&quot;#FF3333&quot;&gt;como NAT&lt;br&gt;&lt;/font&gt;&lt;/div&gt;" style="text;html=1;resizable=0;autosize=1;align=center;verticalAlign=middle;points=[];fillColor=none;strokeColor=none;rounded=0;" vertex="1" parent="1">
          <mxGeometry x="500" y="386" width="70" height="50" as="geometry" />
        </mxCell>
        <mxCell id="MHocgcyIS5ZqbI75Damo-12" value="" style="curved=1;endArrow=classic;html=1;rounded=0;fillColor=#e51400;strokeColor=#B20000;strokeWidth=4;" edge="1" parent="1">
          <mxGeometry width="50" height="50" relative="1" as="geometry">
            <mxPoint x="470" y="450" as="sourcePoint" />
            <mxPoint x="476" y="382" as="targetPoint" />
            <Array as="points">
              <mxPoint x="509.13" y="422" />
              <mxPoint x="489.13" y="392" />
            </Array>
          </mxGeometry>
        </mxCell>
      </root>
    </mxGraphModel>
  </diagram>
</mxfile>
